<?xml version="1.0" encoding="utf-8"?>
<!-- Generator: Adobe Illustrator 25.1.0, SVG Export Plug-In . SVG Version: 6.00 Build 0)  -->
<svg version="1.1" id="Layer_1" xmlns="http://www.w3.org/2000/svg" xmlns:xlink="http://www.w3.org/1999/xlink" x="0px" y="0px"
	 viewBox="0 0 500 500" style="enable-background:new 0 0 500 500;" xml:space="preserve">
<style type="text/css">
	.st0{fill:#FFB300;}
	.st1{fill:none;}
</style>
<g>
	<path d="M59.72,375.85c-1.27,0.78-2.62,0.94-3.98,0.48c-1.62-0.53-3.15-1.96-4.53-4.19c-1.37-2.23-1.96-4.24-1.7-5.93
		c0.2-1.42,0.95-2.56,2.22-3.34c1.27-0.78,2.62-0.94,3.98-0.48c1.56,0.51,3.04,1.85,4.37,3.93l5.55-3.41l-4.17-6.78l0.4-0.25
		l8.66,14.07l-0.4,0.25l-4.22-6.85l-5.55,3.41c1.3,2.15,1.85,4.11,1.59,5.75C61.74,373.94,60.99,375.07,59.72,375.85z M59.46,375.44
		c1.14-0.7,1.81-1.77,2-3.05c0.23-1.57-0.31-3.46-1.6-5.56s-2.74-3.44-4.25-3.93c-1.23-0.42-2.48-0.3-3.62,0.41s-1.81,1.77-2,3.05
		c-0.23,1.57,0.31,3.46,1.6,5.56c1.29,2.1,2.74,3.44,4.25,3.93C57.07,376.26,58.32,376.14,59.46,375.44z"/>
	<path d="M47.24,357.17l-6.05-12.25l0.42-0.21l6.28,12.71l-4.08,2.02l-0.23-0.46L47.24,357.17z M51.18,357.32l-7.43-15.04l0.4-0.2
		l7.43,15.04L51.18,357.32z M59.94,350.9l-6.21-12.58l0.4-0.2l6.44,13.04l-3.65,1.8l-6-12.14l-2.75,1.36l6,12.14l-0.4,0.2
		l-6.22-12.6l3.55-1.75l6,12.14L59.94,350.9z"/>
	<path d="M33.92,325.36l-4.1,1.57l-0.17-0.46l10.14-3.88l2.45,6.42l5.65-2.16l-2.84-7.44l0.44-0.17l5.9,15.43l-0.44,0.17l-2.87-7.52
		l-5.65,2.16l2.48,6.5l-10.14,3.88l-0.17-0.46l4.1-1.57L33.92,325.36z M34.33,325.2l4.77,12.49l5.19-1.98l-4.77-12.49L34.33,325.2z"
		/>
	<path d="M41.62,307.82l2.12,7.63l-16.26,4.53l-2.25-8.08l0.45-0.13l2.11,7.59l15.38-4.28l-1.99-7.14c-0.63-2.26-1.97-4.2-3.59-5.12
		l-14.17,3.94l-0.13-0.47l8-2.23l-0.87-3.14l0.43-0.12l0.87,3.14l9.54-2.65l0.13,0.47l-3.32,0.92
		C39.64,303.49,40.98,305.52,41.62,307.82z"/>
	<path d="M27.16,283.61l-0.93-6.19l-8.02,1.21l-0.08-0.5l18.45-2.78l0.08,0.5l-9.96,1.5l0.93,6.19L27.16,283.61z M36.44,283.87
		l0.91,6.02l-16.7,2.52l-1.22-8.06l0.46-0.07l1.14,7.56l15.79-2.38L36,283.94c-0.28-1.88-0.85-3.81-1.75-4.86l0.44-0.07
		C35.6,280.01,36.15,281.95,36.44,283.87z"/>
	<path d="M33.91,256.75l0.22,7.45l-16.99,0.5l-0.01-0.51l16.54-0.49l-0.2-6.94c-0.07-2.47-0.97-4.85-2.51-6.3l-14.47,0.43
		l-0.01-0.49l8.3-0.24l-0.1-3.26l0.45-0.01l0.1,3.26l9.9-0.29l0.01,0.49l-3.68,0.11C32.89,251.73,33.83,254.17,33.91,256.75z"/>
	<path d="M20.1,242.91c-1.02-0.06-1.8-0.58-2.33-1.6c-0.67-1.24-0.93-3.24-0.75-6.04s0.68-4.76,1.5-5.9
		c0.66-0.94,1.49-1.36,2.51-1.29c1.02,0.06,1.82,0.58,2.35,1.6c0.65,1.24,0.91,3.24,0.73,6.04c-0.18,2.81-0.68,4.76-1.48,5.9
		C21.98,242.56,21.12,242.98,20.1,242.91z M20.13,242.4c0.85,0.05,1.58-0.29,2.12-1.08c0.77-1.04,1.25-2.91,1.42-5.63
		s-0.07-4.64-0.71-5.78c-0.44-0.84-1.12-1.26-1.97-1.32c-0.83-0.05-1.58,0.29-2.12,1.06c-0.75,1.06-1.23,2.93-1.4,5.65
		s0.07,4.63,0.69,5.76C18.61,241.92,19.31,242.35,20.13,242.4z M26.82,244.32l1.05-16.75l0.45,0.03l-1.05,16.75L26.82,244.32z
		 M34.85,242.94l0.87-13.9l0.47,0.03l-0.9,14.41l-4.93-0.31l0.03-0.51L34.85,242.94z"/>
	<path d="M36.92,213.14l-0.88,4.75l-16.71-3.09l0.09-0.48l16.27,3.01l0.79-4.27c0.37-2.01,0.14-3.68-0.73-4.96l-14.78-2.74l0.09-0.5
		l7.98,1.48l0.79-4.25l-8.12-1.5l0.09-0.5l18.34,3.4l-0.09,0.5l-9.78-1.81l-0.79,4.25l9.53,1.76l-0.09,0.5l-2.68-0.5
		C37.12,209.39,37.29,211.13,36.92,213.14z"/>
	<path d="M27.14,194.96c-1.29-0.37-2.15-1.16-2.6-2.15c-0.47-1-0.49-2.24-0.13-3.53s1.04-2.34,1.96-2.94
		c0.9-0.61,2.05-0.81,3.34-0.45s2.13,1.14,2.58,2.13c0.47,1,0.51,2.25,0.15,3.54s-1.06,2.33-1.98,2.93
		C29.55,195.09,28.43,195.32,27.14,194.96z M27.27,194.46c1.13,0.32,2.12,0.16,2.92-0.39c0.84-0.54,1.46-1.49,1.79-2.66
		c0.33-1.17,0.3-2.3-0.13-3.2c-0.39-0.89-1.15-1.54-2.28-1.86c-1.15-0.33-2.14-0.17-2.94,0.38c-0.84,0.54-1.46,1.49-1.79,2.65
		c-0.33,1.17-0.3,2.3,0.13,3.2C25.36,193.48,26.13,194.14,27.27,194.46z M35.54,182.12l-8.31-2.36l0.14-0.49l8.31,2.36L35.54,182.12
		z M41.48,196.88l3.65-12.84l0.43,0.12l-3.78,13.33l-4.05-1.15l3.58-12.59l-3.15-0.9l-3.58,12.59l-0.43-0.12l3.72-13.08l4.03,1.15
		l-3.58,12.59L41.48,196.88z"/>
	<path d="M32.19,173.44c-0.64-0.25-1.04-0.72-1.2-1.49c-0.27-1.29,0.13-3.33,1.33-6.43c1.2-3.1,2.29-4.89,3.35-5.64
		c0.64-0.46,1.26-0.54,1.9-0.29s1.02,0.72,1.2,1.49c0.26,1.27-0.15,3.32-1.35,6.42c-1.2,3.1-2.28,4.87-3.34,5.65
		C33.43,173.6,32.82,173.69,32.19,173.44z M32.37,172.96c0.48,0.18,0.97,0.15,1.47-0.21c0.96-0.65,1.97-2.37,3.16-5.42
		s1.6-5,1.33-6.13c-0.13-0.6-0.47-0.96-0.95-1.15c-0.5-0.19-0.97-0.15-1.47,0.21c-0.96,0.65-1.97,2.37-3.16,5.42
		c-1.19,3.06-1.6,5-1.33,6.13C31.56,172.42,31.88,172.77,32.37,172.96z M36.86,176.3l6.07-15.64l0.44,0.17l-6.07,15.64L36.86,176.3z
		 M47.1,178.27l5.08-13.08l0.42,0.16l-5.26,13.56l-3.55-1.38l4.9-12.63l-2.74-1.06l-4.9,12.63l-0.42-0.16l5.09-13.1l3.59,1.39
		l-4.9,12.63L47.1,178.27z"/>
	<path d="M44.7,148.53c-1.22-0.65-1.96-1.61-2.25-2.7c-0.29-1.12-0.06-2.42,0.61-3.66c0.67-1.26,1.62-2.17,2.72-2.55
		c1.07-0.37,2.27-0.28,3.5,0.38c1.24,0.66,1.98,1.62,2.25,2.7c0.31,1.13,0.07,2.43-0.6,3.69c-0.66,1.24-1.61,2.15-2.73,2.52
		C47.15,149.28,45.94,149.19,44.7,148.53z M44.93,148.1c1.11,0.59,2.15,0.67,3.11,0.33c1.02-0.32,1.88-1.12,2.49-2.26
		c0.61-1.15,0.81-2.32,0.51-3.35c-0.26-0.96-0.89-1.81-2-2.4c-1.09-0.58-2.14-0.64-3.09-0.33c-1.02,0.32-1.89,1.14-2.5,2.28
		c-0.61,1.14-0.8,2.3-0.5,3.33C43.2,146.68,43.85,147.51,44.93,148.1z M54,148.17l5.33,2.86l-0.24,0.45l-5.33-2.86l-2.4,4.49
		l-0.39-0.21l4.5-8.39c1.05-1.95,1.47-3.92,1.11-5.59l-9.27-4.97l0.23-0.43l16.44,8.81l-0.23,0.43l-6.72-3.6
		c0.35,1.59-0.1,3.57-1.17,5.56L54,148.17z"/>
	<path d="M55.03,126.41l-2.72-1.8l0.28-0.43l2.71,1.8l1.97-2.98l0.39,0.26l-4.25,6.42l-0.39-0.26L55.03,126.41z M74.56,125.86
		l-8.29-5.49l-2.14,3.23l8.07,5.35l-0.27,0.41l-15.21-10.07l0.27-0.41l6.76,4.48l2.14-3.23l-6.89-4.56l0.28-0.43l15.55,10.29
		L74.56,125.86z M60.8,134.03c-2.2-1.46-3.24-2.81-3.47-4.06c-0.12-0.74,0.05-1.42,0.46-2.04c0.42-0.64,0.98-1.06,1.7-1.22
		c1.23-0.28,2.9,0.13,5.1,1.59c2.2,1.46,3.23,2.83,3.45,4.07c0.15,0.74-0.04,1.4-0.46,2.04c-0.41,0.62-0.95,1.05-1.7,1.22
		C64.66,135.92,63,135.49,60.8,134.03z M61.07,133.62c2.06,1.36,3.6,1.77,4.69,1.55c0.63-0.14,1.11-0.49,1.46-1s0.48-1.11,0.35-1.73
		c-0.21-1.11-1.2-2.35-3.26-3.71c-2.04-1.35-3.59-1.79-4.67-1.54c-0.64,0.11-1.11,0.49-1.45,1s-0.49,1.08-0.35,1.73
		C58.04,131,59.03,132.27,61.07,133.62z"/>
	<path d="M75.35,105.29l13.21-14.66l0.46,0.42l-6.67,7.4l7.15,6.45l7.46-8.28l0.49,0.44l-15.49,17.18l-0.49-0.44l7.54-8.37
		l-7.15-6.45l-6.53,7.24l-10.54-9.5l0.46-0.51L75.35,105.29z"/>
	<path d="M101.38,79.62l-6.48,5.54l-4.83-5.64l8.15-6.98l-3.93-4.6l-8.15,6.98l-0.41-0.48l8.67-7.42l4.75,5.55l-8.13,6.96l4.01,4.69
		l5.93-5.08c2.02-1.72,3.89-3.84,4.48-5.72l0.43,0.5C105.34,75.76,103.44,77.85,101.38,79.62z M111.1,73.18l-4.19-4.89l-4.8,4.11
		l-0.41-0.48l4.8-4.11l-3.06-3.58l-4.8,4.11l-0.41-0.48l4.8-4.11l-2.27-2.65l0.54-0.46l10.33,12.07L111.1,73.18z M113.6,76.1
		L99.4,88.26l-0.43-0.5l14.74-12.62l4.84,5.66l-0.54,0.47L113.6,76.1z"/>
	<path d="M110.78,58.05l5.99-3.91l-2.49-3.82l0.6-0.39l2.49,3.82l6.02-3.92l0.36,0.55l-12.61,8.22L110.78,58.05z M118.71,68.03
		c-1.68-2.57-2.13-4.8-1.78-6.6c0.3-1.55,1.28-2.83,2.61-3.69c1.35-0.88,2.89-1.24,4.43-0.9c1.79,0.4,3.64,1.71,5.32,4.29
		c1.69,2.6,2.15,4.82,1.79,6.62c-0.3,1.55-1.28,2.79-2.62,3.67c-1.32,0.86-2.87,1.27-4.42,0.92
		C122.26,71.95,120.4,70.63,118.71,68.03z M119.31,67.64c1.56,2.4,3.2,3.64,4.82,4.01c1.41,0.36,2.79,0.03,3.99-0.75
		c1.2-0.78,2.06-1.91,2.3-3.35c0.32-1.63-0.14-3.65-1.7-6.04c-1.55-2.37-3.2-3.6-4.85-3.99c-1.39-0.34-2.78,0-3.98,0.78
		c-1.2,0.78-2.06,1.91-2.32,3.32C117.28,63.28,117.76,65.27,119.31,67.64z M132.86,53.07l3.82-2.49l0.34,0.52l-3.82,2.49l7.57,11.61
		l-0.57,0.37l-14.26-21.87l0.57-0.37L132.86,53.07z"/>
	<path d="M141.16,43.87l17.25-8.28l0.27,0.56l-17.9,8.59l-3.49-7.28l0.65-0.31L141.16,43.87z M141.6,50.84l21.17-10.16l0.28,0.59
		l-21.17,10.16L141.6,50.84z M148.91,60.02l17.57-8.43l0.28,0.59l-18.22,8.74l-3.22-6.72l0.65-0.31L148.91,60.02z"/>
	<path class="st0" d="M174.79,25.13c-0.32-1.12-0.06-2.18,0.5-3.02c0.71-0.98,1.94-1.7,3.4-2.11c1.43-0.41,2.85-0.44,3.97,0.02
		c0.95,0.41,1.7,1.19,2.02,2.31c0.33,1.15,0.1,2.2-0.5,3.05c-0.71,0.98-1.94,1.7-3.37,2.1c-1.46,0.42-2.88,0.45-4-0.01
		C175.89,27.05,175.12,26.28,174.79,25.13z M175.48,24.94c0.27,0.95,0.84,1.53,1.59,1.87c1,0.46,2.26,0.44,3.58,0.07
		c1.32-0.37,2.38-1.02,2.98-1.93c0.48-0.7,0.63-1.48,0.36-2.43c-0.26-0.92-0.8-1.51-1.58-1.84c-1-0.46-2.23-0.45-3.55-0.07
		s-2.4,1.02-3.01,1.94C175.39,23.23,175.22,24.02,175.48,24.94z M181.19,30.87l1.34,4.7l-0.66,0.19l-1.34-4.7l-4.79,1.36l-0.17-0.6
		l6.88-1.96c2.21-0.63,4.19-1.41,5.41-2.65l0.17,0.6c-1.11,1.21-3.12,2-5.41,2.65L181.19,30.87z M198.43,33.41l0.69-0.2l2.25,7.91
		l-18.52,5.26l-2.25-7.91l0.66-0.19l0.81,2.84l17.17-4.88L198.43,33.41z M182.23,41.73l1.1,3.87l17.17-4.88l-1.1-3.87L182.23,41.73z
		 M186.63,32.33l-0.18-0.63l4.99-1.42l-3.56-12.53l0.69-0.2l4.35,15.31l-0.69,0.2l-0.61-2.15L186.63,32.33z M194.16,15.76
		l4.42,15.57l-0.69,0.2l-4.42-15.57L194.16,15.76z"/>
	<path class="st0" d="M210.51,36.43l-3.25-22.12l-3.01,0.44l-0.1-0.65l14.25-2.09l0.1,0.65l-3.1,0.45l2.02,13.77
		c0.45,3.04,0.63,6.54,0.4,8.47l0.32-0.05c2.39-0.35,4.53-0.94,5.92-1.98l0.1,0.65c-1.32,1.04-3.47,1.59-5.92,1.95l-10.97,1.61
		l-0.09-0.62L210.51,36.43z M214.72,13.21l-6.75,0.99l3.25,22.12l5.93-0.87c0.22-1.99,0.03-5.52-0.4-8.47L214.72,13.21z
		 M219.83,22.77l5.6-0.82l-1.65-11.24l0.71-0.1l3.8,25.84l-0.71,0.1l-2.05-13.95l-5.6,0.82L219.83,22.77z"/>
	<path class="st0" d="M234.44,21.88l23.48-0.38l0.01,0.63l-23.48,0.38L234.44,21.88z M236.87,10.01l0.05,3.04l18.24-0.3l-0.05-3.04
		l0.72-0.01l0.13,8.14l-19.67,0.32l-0.13-8.14L236.87,10.01z M237.28,35.4l19.64-0.32l0.01,0.63l-20.35,0.33L236.49,31l18.95-0.31
		l-0.06-3.81l-18.95,0.31l-0.01-0.66l19.67-0.32l0.08,5.1l-18.95,0.31L237.28,35.4z M255.16,13.38l-18.24,0.3l0.06,3.81l18.24-0.3
		L255.16,13.38z"/>
	<path class="st0" d="M275.41,35.08l-11.25-1.27l1.37-12.17l10.37,1.17l1.2-10.66l-10.37-1.17l0.07-0.65l11.05,1.25l-1.35,11.97
		l-10.34-1.17l-1.23,10.9l10.54,1.19c3.26,0.37,6.49-0.35,8.53-1.98l2.31-20.47l0.71,0.08l-2.93,25.94l-0.71-0.08l0.54-4.8
		C282.1,34.79,278.72,35.46,275.41,35.08z"/>
	<path class="st0" d="M300.32,29.65c-1.59,4.06-5.35,6.84-9.57,7.52l0.17-0.67c3.81-0.74,8.18-3.25,9.88-10.11l2.64-10.65l0.67,0.17
		l-2.64,10.65c-1.7,6.86,1.06,10.95,4.01,13.55l-0.17,0.67C302.01,38.06,299.88,34,300.32,29.65z M308.64,22.72l6.89,1.71l1.41-5.7
		l0.69,0.17l-6.28,25.34l-0.69-0.17l2.76-11.14l-6.89-1.71l0.15-0.61l6.89,1.71l1.8-7.26l-6.88-1.71L308.64,22.72z"/>
	<path d="M336.34,31.67l1.7-4.33l-10.57-4.15l0.24-0.61L338.95,27l-1.93,4.91c-3.65,9.29-9.99,13.46-18.12,12.64l0.23-0.58
		C326.83,44.65,332.83,40.61,336.34,31.67z M342.29,40.25l4.24,1.67l-0.23,0.58l-4.24-1.67L337,53.73l-0.64-0.25l9.54-24.3
		l0.64,0.25L342.29,40.25z"/>
	<path d="M365.7,40.2l-6.5,10.73l10.45,6.33l-0.34,0.56l-5.25-3.18l-4.91,8.11l4.16,2.51c2.65,1.6,5.37,2.35,7.73,1.96l11.14-18.41
		l0.61,0.37l-13.51,22.34l-0.61-0.37l2-3.31c-2.22,0.4-4.98-0.4-7.68-2.04l-11.09-6.71l0.32-0.54l6.32,3.83l4.91-8.11l-5.18-3.13
		l7.17-11.86l10.76,6.51l-0.34,0.56L365.7,40.2z"/>
	<path d="M383.93,82.92c-1.16-2.37-1.45-5.59-0.71-7.75c-1.77,1.22-5.12,1.67-8.02,0.77l0.43-0.54c2.43,0.83,6.68,0.34,8.61-2.08
		l0.99-1.23l0.56,0.45l-0.97,1.21c-1.81,2.26-1.6,6.2-0.46,8.6c2.59,0.58,6.53-0.05,8.33-2.31l0.97-1.21l0.56,0.45l-0.99,1.23
		c-1.94,2.42-1.52,6.53-0.16,8.84l-0.43,0.54c-1.48-2.59-1.8-5.91-1.02-7.99C389.72,83.12,386.62,83.47,383.93,82.92z M397.55,61.25
		l-6.64-5.31l0.39-0.49l7.17,5.73l-0.37,0.47c-4.5,5.63-10.06,6.76-15.85,3.97l0.41-0.51C387.99,67.58,393.21,66.68,397.55,61.25z
		 M402.81,64.46l0.56,0.45l-8.75,10.94l-0.56-0.45l4.47-5.59l-3.7-2.96l0.41-0.51l3.7,2.96L402.81,64.46z M407.69,68.1l0.56,0.45
		l-8.99,11.25l-0.56-0.45L407.69,68.1z"/>
	<path d="M404.83,88.21l-2.62,2.52l12.65,13.14l2.62-2.52l0.5,0.52l-6.91,6.66l-13.65-14.17l6.91-6.66L404.83,88.21z M414.41,104.31
		l-12.65-13.14l-3.39,3.27l12.65,13.14L414.41,104.31z M406.16,83.28l16.29,16.92l-0.47,0.46l-16.29-16.92L406.16,83.28z
		 M421.05,85.16c-3.09,0.87-7.55-0.96-11.5-4.03l0.51-0.5c3.65,2.98,9.49,5.51,12.13,2.97l0.62-0.6l0.5,0.52l-0.62,0.6
		c-2.64,2.54-0.45,8.17,2.51,12.23l-0.51,0.5C421.67,92.64,420.11,88.18,421.05,85.16z"/>
	<path d="M424.18,121.58l-6.35-8.58l19.12-14.15l0.43,0.58l-18.61,13.78l5.92,8c2.06,2.78,5.01,4.82,7.91,5.23l16.29-12.06
		l0.43,0.57l-20.99,15.53l-0.43-0.57l4.14-3.07C429.37,126.53,426.34,124.5,424.18,121.58z"/>
	<path d="M439.45,145.36l-5.38-9.69l20.67-11.47l5.7,10.27l-0.57,0.32l-5.35-9.64l-19.55,10.85l5.03,9.07
		c1.59,2.87,4.05,5.08,6.56,5.8l18.01-10l0.33,0.6l-10.17,5.64l2.21,3.99l-0.55,0.3l-2.21-3.99l-12.12,6.73l-0.33-0.6l4.22-2.34
		C443.56,150.62,441.07,148.28,439.45,145.36z"/>
	<path d="M447.32,162.13l-0.38-0.84l2.39-1.07l0.38,0.84L447.32,162.13z M453.59,159.15l-0.27-0.6l14.58-6.61l0.32,0.71
		L453.59,159.15z"/>
</g>
<rect x="131.61" y="25.77" class="st1" width="2.27" height="0"/>
</svg>
